# xmcd
#
# Track frame offsets:
#	150
#	21372
#	43197
#	69147
#	89547
#	105297
#	118497
#	139947
#	161247
#	179247
#
# Disc length: 2716 seconds
#
# Revision: 1
# Processed by: cddbd v1.5.1PL2 Copyright (c) Steve Scherf et al.
# Submitted via: EasyCDDAExtractor 9.0.0.1
#
DISCID=930a9a0a
DTITLE=Kiss - Conference Centre Brighton 30-09-84 Disc 1
DYEAR=1984
DGENRE=Hard Rock
TTITLE0=I've Had Enough
TTITLE1=Detroit Rock City
TTITLE2=Burn Bitch Burn
TTITLE3=Cold Gin
TTITLE4=Strutter
TTITLE5=Paul Stanley's Guitar Solo
TTITLE6=Under The Gun
TTITLE7=Fits Like A Glove
TTITLE8=Get All You Can Take
TTITLE9=Eric Carr's Drum Solo
EXTD=
EXTT0=
EXTT1=
EXTT2=
EXTT3=
EXTT4=
EXTT5=
EXTT6=
EXTT7=
EXTT8=
EXTT9=
PLAYORDER=
